<svg width="32" height="32" viewBox="0 0 32 32" fill="none" xmlns="http://www.w3.org/2000/svg">
<path d="M14.448 28.04H14.168C13.848 28.04 13.6213 28.0267 13.488 28C13.248 28 13.0613 27.88 12.928 27.64L12.088 26C12.008 25.84 11.968 25.6667 11.968 25.48C11.968 25.1867 11.9147 24.88 11.808 24.56C11.728 24.2133 11.6747 23.96 11.648 23.8C11.5947 23.6133 11.528 23.44 11.448 23.28C11.3947 23.12 11.3547 22.96 11.328 22.8C11.3813 22.6933 11.3813 22.5467 11.328 22.36C11.3013 22.1467 11.288 21.9867 11.288 21.88V21.8C11.288 21.6667 11.2613 21.5333 11.208 21.4C11.1813 21.2667 11.168 21.1333 11.168 21C11.168 20.8933 11.1813 20.8133 11.208 20.76L10.968 18.84C10.968 18.8133 10.928 18.7867 10.848 18.76C10.7947 18.7067 10.7413 18.6933 10.688 18.72C10.128 18.9867 9.35467 19.2 8.368 19.36C8.288 19.3867 8.07467 19.4533 7.728 19.56C7.488 19.6933 7.19467 19.76 6.848 19.76H6.288C5.888 19.8133 5.448 19.8 4.968 19.72C4.488 19.6133 4.168 19.5467 4.008 19.52C3.31467 19.36 2.70133 18.9333 2.168 18.24L2.048 17.92C1.99467 17.76 1.90133 17.5067 1.768 17.16C1.63467 16.8133 1.568 16.48 1.568 16.16C1.568 16.0533 1.55467 15.9733 1.528 15.92C1.34133 15.68 1.23467 15.4 1.208 15.08C1.18133 14.76 1.168 14.5733 1.168 14.52C1.14133 14.44 1.128 14.3467 1.128 14.24C1.128 14.1067 1.11467 14.0133 1.088 13.96C1.03467 13.7467 1.008 13.5867 1.008 13.48L1.048 13.16C1.07467 13.1067 1.07467 13.04 1.048 12.96C1.02133 12.88 1.008 12.8 1.008 12.72C0.981333 12.6133 1.02133 12.48 1.128 12.32C1.34133 12.0533 1.568 11.92 1.808 11.92C2.208 11.9467 2.62133 11.8933 3.048 11.76C3.47467 11.6267 3.74133 11.5467 3.848 11.52C3.95467 11.4933 4.168 11.44 4.488 11.36C4.808 11.2533 5.11467 11.2133 5.408 11.24C5.51467 11.24 5.70133 11.2133 5.968 11.16C6.34133 11.0533 7.07467 10.88 8.168 10.64C8.248 10.6133 8.368 10.6 8.528 10.6C8.63467 10.6267 8.78133 10.64 8.968 10.64C9.288 10.64 9.66133 10.5467 10.088 10.36C10.3813 10.2267 10.7013 10.1333 11.048 10.08C11.208 10.0533 11.328 9.94667 11.408 9.76C11.6213 9.17334 11.728 8.69334 11.728 8.32C11.6747 7.86667 11.728 7.41334 11.888 6.96C11.9147 6.88 11.928 6.74667 11.928 6.56V6.2C11.9813 5.90667 11.9147 5.65333 11.728 5.44C11.6213 5.28 11.5413 5.14667 11.488 5.04C11.4347 4.90667 11.3947 4.8 11.368 4.72C11.3413 4.66667 11.3413 4.6 11.368 4.52C11.3947 4.41333 11.4347 4.34667 11.488 4.32C11.8613 4.10667 12.1547 4 12.368 4C12.448 4 12.5947 4.02667 12.808 4.08C12.968 4.13334 13.1147 4.16 13.248 4.16L13.808 4.12C14.288 4.12 14.648 4.21334 14.888 4.4C14.9947 4.45334 15.1813 4.50667 15.448 4.56C15.5547 4.58667 15.7013 4.6 15.888 4.6C16.7147 4.57334 17.6213 4.84 18.608 5.4C18.768 5.50667 18.9147 5.61333 19.048 5.72C19.1813 5.8 19.288 5.86667 19.368 5.92C19.688 6.18667 19.928 6.37333 20.088 6.48C20.2747 6.58667 20.3947 6.77333 20.448 7.04C20.4747 7.12 20.5013 7.25333 20.528 7.44C20.5813 7.6 20.608 7.73334 20.608 7.84V7.92C20.608 8.08 20.6347 8.34667 20.688 8.72C20.688 8.93333 20.6347 9.22667 20.528 9.6C20.5013 9.73334 20.5013 9.84 20.528 9.92C20.5813 10 20.688 10.0667 20.848 10.12C21.1413 10.2533 21.5147 10.32 21.968 10.32L23.448 10.36C24.008 10.36 24.4213 10.4 24.688 10.48C24.9013 10.5333 25.248 10.56 25.728 10.56C25.808 10.56 26.0213 10.56 26.368 10.56C26.7147 10.56 27.0347 10.6133 27.328 10.72C27.3813 10.7467 27.488 10.76 27.648 10.76C28.048 10.76 28.648 10.8667 29.448 11.08C30.0613 11.24 30.3947 11.32 30.448 11.32L30.768 11.48C30.928 11.5867 31.008 11.7067 31.008 11.84C31.0347 12.0267 31.048 12.2933 31.048 12.64C31.048 13.04 30.928 13.3467 30.688 13.56C30.7147 13.5333 30.488 13.8 30.008 14.36C29.9013 14.4933 29.7547 14.64 29.568 14.8C29.3813 14.96 29.2347 15.0933 29.128 15.2L28.688 15.56C28.368 15.9333 27.9947 16.24 27.568 16.48C27.168 16.72 26.6613 16.9467 26.048 17.16C26.048 17.1867 26.0213 17.2 25.968 17.2C25.7013 17.2 25.3013 17.2533 24.768 17.36C24.6613 17.3867 24.528 17.4133 24.368 17.44C24.208 17.4667 24.0213 17.48 23.808 17.48H22.328C21.8213 17.48 21.368 17.5333 20.968 17.64C20.7547 17.6933 20.408 17.72 19.928 17.72C19.6347 17.7733 19.408 17.9067 19.248 18.12C18.9813 18.4667 18.848 18.8133 18.848 19.16C18.848 19.24 18.848 19.44 18.848 19.76C18.848 20.08 18.7947 20.3733 18.688 20.64C18.6347 20.7467 18.6613 20.9333 18.768 21.2C18.848 21.4667 18.8213 21.68 18.688 21.84C18.528 22.08 18.448 22.32 18.448 22.56C18.448 22.72 18.4613 22.84 18.488 22.92C18.5147 23.0267 18.528 23.1733 18.528 23.36L18.408 24.16C18.3813 24.1867 18.368 24.2267 18.368 24.28C18.368 24.3067 18.3547 24.3333 18.328 24.36C18.1147 24.5467 17.9947 24.7867 17.968 25.08C17.9413 25.3467 17.9147 25.5333 17.888 25.64C17.888 25.6933 17.8747 25.72 17.848 25.72C17.7147 25.8267 17.5547 26.0533 17.368 26.4C17.1813 26.72 16.9813 26.9333 16.768 27.04C16.5013 27.3333 16.1547 27.5467 15.728 27.68C15.328 27.8133 15.0747 27.9067 14.968 27.96C14.8613 28.0133 14.688 28.04 14.448 28.04Z" fill="white"/>
</svg>
