<svg width="32" height="32" viewBox="0 0 32 32" fill="none" xmlns="http://www.w3.org/2000/svg">
<path d="M1.256 14.184L1.576 13.704L1.736 13.464C1.84267 13.304 1.94933 13.224 2.056 13.224C2.64267 13.064 3.14933 12.904 3.576 12.744C4.00267 12.5307 4.376 12.3707 4.696 12.264C4.90933 12.1573 5.06933 12.104 5.176 12.104L8.376 11.464C8.58933 11.4107 8.88267 11.384 9.256 11.384H9.656C9.816 11.4373 10.0027 11.464 10.216 11.464C10.4827 11.4107 10.6693 11.384 10.776 11.384C11.096 11.3307 11.6027 11.304 12.296 11.304H12.696C12.8027 11.304 12.9093 11.2507 13.016 11.144C13.176 10.984 13.2827 10.9573 13.336 11.064C13.496 11.1707 13.7627 11.224 14.136 11.224H14.696C14.856 11.224 15.016 11.2507 15.176 11.304C15.3893 11.304 15.6027 11.2773 15.816 11.224C16.0827 11.1707 16.296 11.1707 16.456 11.224C16.6693 11.224 16.8293 11.224 16.936 11.224H17.576C17.896 11.2773 18.216 11.3307 18.536 11.384C18.9093 11.384 19.2827 11.4107 19.656 11.464C19.9227 11.464 20.3227 11.464 20.856 11.464C21.4427 11.4107 21.9227 11.3307 22.296 11.224C22.5093 11.224 22.6693 11.2507 22.776 11.304C23.0427 11.4107 23.4693 11.464 24.056 11.464C24.2693 11.4107 24.456 11.4107 24.616 11.464C24.776 11.464 24.9093 11.464 25.016 11.464L25.896 11.384C26.1093 11.3307 26.4293 11.304 26.856 11.304C27.1227 11.304 27.336 11.3307 27.496 11.384C27.8693 11.384 28.136 11.3573 28.296 11.304C28.936 11.1973 29.3627 11.144 29.576 11.144C29.896 11.144 30.3227 11.1973 30.856 11.304L31.416 11.464C31.4693 11.464 31.5227 11.4907 31.576 11.544C31.6293 11.544 31.6293 11.5707 31.576 11.624C31.576 11.944 31.6027 12.184 31.656 12.344C31.7093 12.5573 31.6827 12.8773 31.576 13.304C31.5227 13.5173 31.4693 13.8107 31.416 14.184C31.3627 14.504 31.336 14.7707 31.336 14.984C31.336 15.144 31.3627 15.2773 31.416 15.384C31.5227 15.7573 31.496 16.2107 31.336 16.744L31.176 17.464C31.0693 17.8373 30.9093 18.0773 30.696 18.184C30.4827 18.2907 30.3493 18.3973 30.296 18.504C29.9227 18.7707 29.7093 19.0907 29.656 19.464C29.6027 19.784 29.416 19.9707 29.096 20.024C28.8827 20.1307 28.696 20.184 28.536 20.184H27.016L26.296 20.104C26.0293 20.1573 25.656 20.184 25.176 20.184H24.696H24.376C24.1627 20.2907 23.8693 20.2907 23.496 20.184C23.2293 20.1307 22.8293 20.104 22.296 20.104H21.976C21.7627 20.264 21.496 20.264 21.176 20.104C20.856 19.9973 20.4827 19.9973 20.056 20.104C19.8427 20.1573 19.5493 20.184 19.176 20.184H17.336C17.016 20.184 16.776 20.1573 16.616 20.104C16.4027 20.0507 16.0827 20.024 15.656 20.024L14.136 19.944H13.416C13.2027 19.944 13.0427 19.9173 12.936 19.864C12.5093 19.7573 12.1627 19.704 11.896 19.704H11.496C11.2293 19.6507 10.8827 19.624 10.456 19.624C10.0293 19.624 9.68267 19.5707 9.416 19.464C9.096 19.3573 8.856 19.304 8.696 19.304L8.136 19.384C7.976 19.4373 7.736 19.464 7.416 19.464C7.20267 19.4107 6.856 19.384 6.376 19.384L5.896 19.304C5.84267 19.2507 5.736 19.224 5.576 19.224C5.20267 19.224 4.90933 19.1707 4.696 19.064C4.58933 19.0107 4.456 18.984 4.296 18.984C4.18933 18.984 4.02933 18.9307 3.816 18.824L3.096 18.584C2.776 18.4773 2.50933 18.3707 2.296 18.264C2.02933 17.9973 1.86933 17.784 1.816 17.624L1.736 17.464L1.496 17.064L1.256 16.264L1.016 15.464C0.962667 14.984 1.04267 14.5573 1.256 14.184Z" fill="white"/>
</svg>
