<svg width="4" height="18" viewBox="0 0 4 18" fill="none" xmlns="http://www.w3.org/2000/svg">
<path d="M1.12002 17.1202C1.06668 17.0669 1.02002 17.0002 0.980017 16.9202C0.95335 16.9202 0.926684 16.9069 0.900017 16.8802C0.87335 16.8669 0.846684 16.8202 0.820017 16.7402C0.79335 16.5269 0.726683 16.2202 0.620017 15.8202L0.500017 15.2402L0.440017 14.9402L0.240017 13.2202L0.220017 12.4802L0.240017 12.2402C0.240017 12.1469 0.226684 12.0202 0.200017 11.8602C0.186684 11.6869 0.180017 11.4136 0.180017 11.0402C0.206684 10.9736 0.206684 10.8936 0.180017 10.8002C0.180017 10.7736 0.17335 10.7469 0.160017 10.7202C0.146683 10.6936 0.126684 10.6736 0.100017 10.6602C0.100017 10.6336 0.0933505 10.6069 0.0800171 10.5802C0.0800171 10.5536 0.0866837 10.5269 0.100017 10.5002C0.140017 10.3802 0.160017 10.2069 0.160017 9.98022V9.74022C0.146683 9.63356 0.146683 9.52689 0.160017 9.42022C0.17335 9.31356 0.17335 9.20689 0.160017 9.10022C0.146683 8.98022 0.140017 8.87356 0.140017 8.78022C0.15335 8.67356 0.160017 8.58689 0.160017 8.52022C0.160017 8.36022 0.166684 8.24689 0.180017 8.18022C0.19335 8.07356 0.200017 7.90689 0.200017 7.68022C0.200017 7.60022 0.206684 7.49356 0.220017 7.36022C0.23335 7.22689 0.246684 7.11356 0.260017 7.02022L0.240017 6.52022C0.240017 6.28022 0.226684 5.96022 0.200017 5.56022C0.186684 5.46689 0.186684 5.38022 0.200017 5.30022C0.240017 5.12689 0.260017 4.89356 0.260017 4.60022C0.260017 4.53356 0.260017 4.46022 0.260017 4.38022C0.27335 4.28689 0.27335 4.18022 0.260017 4.06022L0.240017 3.68022V3.58022C0.21335 3.36689 0.200017 3.20689 0.200017 3.10022C0.200017 3.02022 0.21335 2.88689 0.240017 2.70022L0.260017 2.50022C0.260017 2.44689 0.246684 2.36689 0.220017 2.26022C0.180017 2.03356 0.160017 1.81356 0.160017 1.60022C0.160017 1.34689 0.180017 1.09355 0.220017 0.840221L0.260017 0.520222C0.260017 0.466888 0.29335 0.426888 0.360017 0.400222C0.37335 0.400222 0.406683 0.406889 0.460017 0.420222C0.51335 0.433555 0.560017 0.426888 0.600017 0.400222C0.640017 0.386888 0.686683 0.393555 0.740017 0.420222C0.806684 0.433555 0.85335 0.440222 0.880017 0.440222C0.946683 0.480222 1.04002 0.506888 1.16002 0.520222C1.28002 0.533555 1.38002 0.553555 1.46002 0.580222C1.48668 0.606888 1.51335 0.620221 1.54002 0.620221C1.56668 0.606888 1.58002 0.580221 1.58002 0.540221C1.62002 0.513555 1.67335 0.500222 1.74002 0.500222C1.84668 0.500222 1.94668 0.546888 2.04002 0.640221C2.16002 0.640221 2.24668 0.653555 2.30002 0.680222C2.39335 0.680222 2.48002 0.773555 2.56002 0.960222C2.56002 1.02689 2.58002 1.10022 2.62002 1.18022C2.75335 1.38022 2.88002 1.48689 3.00002 1.50022C3.06668 1.52689 3.12668 1.63356 3.18002 1.82022L3.22002 2.12022V2.98022C3.20668 3.03355 3.20002 3.11355 3.20002 3.22022C3.20002 3.28689 3.20668 3.34022 3.22002 3.38022C3.22002 3.46022 3.22002 3.59355 3.22002 3.78022C3.22002 3.95355 3.21335 4.12022 3.20002 4.28022C3.21335 4.32022 3.22002 4.36689 3.22002 4.42022C3.24668 4.52689 3.26002 4.61355 3.26002 4.68022C3.26002 4.73356 3.24668 4.81355 3.22002 4.92022C3.20668 4.98689 3.20002 5.10022 3.20002 5.26022V5.60022C3.18668 5.68022 3.19335 5.72689 3.22002 5.74022C3.23335 5.80689 3.24002 5.89356 3.24002 6.00022C3.24002 6.08022 3.23335 6.14022 3.22002 6.18022C3.18002 6.31356 3.16002 6.45356 3.16002 6.60022L3.18002 6.82022C3.19335 6.87356 3.20002 6.94689 3.20002 7.04022V7.30022V8.32022C3.21335 8.40022 3.21335 8.47356 3.20002 8.54022C3.20002 8.59356 3.20002 8.64689 3.20002 8.70022C3.16002 8.79355 3.14002 8.96689 3.14002 9.22022C3.14002 9.59355 3.12668 9.88022 3.10002 10.0802C3.11335 10.1469 3.11335 10.2202 3.10002 10.3002C3.10002 10.3669 3.10668 10.4336 3.12002 10.5002C3.12002 10.5936 3.11335 10.6736 3.10002 10.7402C3.03335 11.0469 3.00668 11.2936 3.02002 11.4802C3.00668 11.6402 3.00002 11.7802 3.00002 11.9002C3.01335 12.0069 3.02002 12.0936 3.02002 12.1602C3.02002 12.3336 3.00002 12.5002 2.96002 12.6602C2.93335 12.9002 2.92002 13.0736 2.92002 13.1802V13.3802C2.93335 13.4202 2.94002 13.4869 2.94002 13.5802C2.94002 13.6869 2.93335 13.7602 2.92002 13.8002C2.90668 13.9202 2.90002 14.1002 2.90002 14.3402L2.88002 14.5602V14.6202C2.85335 14.6869 2.84668 14.7269 2.86002 14.7402C2.86002 14.9536 2.84668 15.1136 2.82002 15.2202C2.80668 15.2736 2.79335 15.3536 2.78002 15.4602C2.76668 15.5802 2.74668 15.6669 2.72002 15.7202C2.69335 15.8002 2.66668 15.9469 2.64002 16.1602C2.62668 16.2136 2.58668 16.3469 2.52002 16.5602C2.48002 16.7069 2.41335 16.8002 2.32002 16.8402C2.30668 16.8269 2.28668 16.8269 2.26002 16.8402C2.24668 16.8536 2.20002 16.9269 2.12002 17.0602C2.08002 17.0469 2.03335 17.0536 1.98002 17.0802C1.94002 17.1202 1.90002 17.1402 1.86002 17.1402C1.82002 17.1802 1.76668 17.2069 1.70002 17.2202C1.64668 17.2336 1.60668 17.2469 1.58002 17.2602C1.51335 17.3002 1.44668 17.3069 1.38002 17.2802C1.31335 17.2536 1.22668 17.2002 1.12002 17.1202Z" fill="white"/>
</svg>
